<svg width="28" height="28" viewBox="0 0 28 28" fill="none" xmlns="http://www.w3.org/2000/svg">
<path opacity="0.5" d="M21.874 10.5V11.3215C21.874 12.3073 22.1553 13.2711 22.6826 14.0913L23.9746 16.1014C25.1547 17.9374 24.2538 20.4329 22.2012 21.0135C16.8318 22.5323 11.1682 22.5323 5.79876 21.0135C3.74622 20.4329 2.84529 17.9374 4.02542 16.1014L5.31743 14.0913C5.84467 13.2711 6.12602 12.3073 6.12602 11.3215V10.5C6.12602 5.98971 9.65132 2.33337 14 2.33337C18.3487 2.33337 21.874 5.98971 21.874 10.5Z" fill="#8F8E8E"/>
<path d="M8.45068 21.6361C9.21011 23.9755 11.4076 25.6667 14.0001 25.6667C16.5926 25.6667 18.7901 23.9755 19.5495 21.6361C15.8799 22.3248 12.1204 22.3248 8.45068 21.6361Z" fill="#8F8E8E"/>
</svg>
