<svg width="22" height="22" viewBox="0 0 22 22" fill="none" xmlns="http://www.w3.org/2000/svg">
<path d="M5.41667 2.16667C5.41667 1.59203 5.64494 1.04093 6.05127 0.634602C6.4576 0.228273 7.0087 0 7.58333 0H14.0833C14.658 0 15.2091 0.228273 15.6154 0.634602C16.0217 1.04093 16.25 1.59203 16.25 2.16667V4.33333H20.5833C20.8707 4.33333 21.1462 4.44747 21.3494 4.65063C21.5525 4.8538 21.6667 5.12935 21.6667 5.41667C21.6667 5.70398 21.5525 5.97953 21.3494 6.1827C21.1462 6.38586 20.8707 6.5 20.5833 6.5H19.4253L18.486 19.6538C18.4471 20.2005 18.2025 20.712 17.8015 21.0855C17.4004 21.459 16.8728 21.6667 16.3248 21.6667H5.34083C4.79282 21.6667 4.26516 21.459 3.86413 21.0855C3.4631 20.712 3.21849 20.2005 3.17958 19.6538L2.2425 6.5H1.08333C0.796016 6.5 0.520465 6.38586 0.317301 6.1827C0.114137 5.97953 0 5.70398 0 5.41667C0 5.12935 0.114137 4.8538 0.317301 4.65063C0.520465 4.44747 0.796016 4.33333 1.08333 4.33333H5.41667V2.16667ZM7.58333 4.33333H14.0833V2.16667H7.58333V4.33333ZM4.4135 6.5L5.34192 19.5H16.3258L17.2543 6.5H4.4135ZM8.66667 8.66667C8.95399 8.66667 9.22954 8.7808 9.4327 8.98397C9.63586 9.18713 9.75 9.46268 9.75 9.75V16.25C9.75 16.5373 9.63586 16.8129 9.4327 17.016C9.22954 17.2192 8.95399 17.3333 8.66667 17.3333C8.37935 17.3333 8.1038 17.2192 7.90063 17.016C7.69747 16.8129 7.58333 16.5373 7.58333 16.25V9.75C7.58333 9.46268 7.69747 9.18713 7.90063 8.98397C8.1038 8.7808 8.37935 8.66667 8.66667 8.66667ZM13 8.66667C13.2873 8.66667 13.5629 8.7808 13.766 8.98397C13.9692 9.18713 14.0833 9.46268 14.0833 9.75V16.25C14.0833 16.5373 13.9692 16.8129 13.766 17.016C13.5629 17.2192 13.2873 17.3333 13 17.3333C12.7127 17.3333 12.4371 17.2192 12.234 17.016C12.0308 16.8129 11.9167 16.5373 11.9167 16.25V9.75C11.9167 9.46268 12.0308 9.18713 12.234 8.98397C12.4371 8.7808 12.7127 8.66667 13 8.66667Z" fill="#FF5400"/>
</svg>
