<svg width="29" height="29" viewBox="0 0 29 29" fill="none" xmlns="http://www.w3.org/2000/svg">
<path d="M8.38626 2.41663C8.88875 2.41663 9.2961 2.80838 9.2961 3.29163V5.05668C10.1032 5.04163 11.0078 5.04163 12.0256 5.04163H16.8782C17.896 5.04163 18.8007 5.04163 19.6077 5.05668V3.29163C19.6077 2.80838 20.0151 2.41663 20.5176 2.41663C21.0201 2.41663 21.4274 2.80838 21.4274 3.29163V5.13409C23.1735 5.26856 24.3198 5.59856 25.162 6.40846C26.0041 7.21836 26.3473 8.32074 26.4871 9.99996L26.5834 10.875H3.53392H2.41675V9.99996C2.55657 8.32074 2.89972 7.21836 3.74187 6.40846C4.58402 5.59856 5.73031 5.26856 7.47641 5.13409V3.29163C7.47641 2.80838 7.88376 2.41663 8.38626 2.41663Z" fill="#8F8E8E"/>
<path opacity="0.5" d="M26.5833 16.9166V14.5C26.5833 13.4861 26.5793 11.6787 26.5638 10.8749H2.42827C2.41268 11.6787 2.41662 13.4861 2.41662 14.5V16.9166C2.41662 21.4736 2.41662 23.752 3.83227 25.1677C5.24792 26.5833 7.52638 26.5833 12.0833 26.5833H16.9166C21.4735 26.5833 23.752 26.5833 25.1676 25.1677C26.5833 23.752 26.5833 21.4736 26.5833 16.9166Z" fill="#8F8E8E"/>
<path d="M21.7499 20.5417C21.7499 21.209 21.2089 21.75 20.5416 21.75C19.8742 21.75 19.3333 21.209 19.3333 20.5417C19.3333 19.8743 19.8742 19.3333 20.5416 19.3333C21.2089 19.3333 21.7499 19.8743 21.7499 20.5417Z" fill="#8F8E8E"/>
<path d="M21.7499 15.7083C21.7499 16.3757 21.2089 16.9167 20.5416 16.9167C19.8742 16.9167 19.3333 16.3757 19.3333 15.7083C19.3333 15.041 19.8742 14.5 20.5416 14.5C21.2089 14.5 21.7499 15.041 21.7499 15.7083Z" fill="#8F8E8E"/>
<path d="M15.7084 20.5417C15.7084 21.209 15.1674 21.75 14.5001 21.75C13.8327 21.75 13.2917 21.209 13.2917 20.5417C13.2917 19.8743 13.8327 19.3333 14.5001 19.3333C15.1674 19.3333 15.7084 19.8743 15.7084 20.5417Z" fill="#8F8E8E"/>
<path d="M15.7084 15.7083C15.7084 16.3757 15.1674 16.9167 14.5001 16.9167C13.8327 16.9167 13.2917 16.3757 13.2917 15.7083C13.2917 15.041 13.8327 14.5 14.5001 14.5C15.1674 14.5 15.7084 15.041 15.7084 15.7083Z" fill="#8F8E8E"/>
<path d="M9.66667 20.5417C9.66667 21.209 9.12568 21.75 8.45833 21.75C7.79099 21.75 7.25 21.209 7.25 20.5417C7.25 19.8743 7.79099 19.3333 8.45833 19.3333C9.12568 19.3333 9.66667 19.8743 9.66667 20.5417Z" fill="#8F8E8E"/>
<path d="M9.66667 15.7083C9.66667 16.3757 9.12568 16.9167 8.45833 16.9167C7.79099 16.9167 7.25 16.3757 7.25 15.7083C7.25 15.041 7.79099 14.5 8.45833 14.5C9.12568 14.5 9.66667 15.041 9.66667 15.7083Z" fill="#8F8E8E"/>
</svg>
