<svg width="28" height="28" viewBox="0 0 28 28" fill="none" xmlns="http://www.w3.org/2000/svg">
<path opacity="0.5" d="M13.9999 25.6667C8.5002 25.6667 5.75034 25.6667 4.0418 23.9582C2.33325 22.2496 2.33325 19.4998 2.33325 14C2.33325 8.50032 2.33325 5.75046 4.0418 4.04192C5.75034 2.33337 8.5002 2.33337 13.9999 2.33337C19.4996 2.33337 22.2495 2.33337 23.958 4.04192C25.6666 5.75046 25.6666 8.50032 25.6666 14C25.6666 19.4998 25.6666 22.2496 23.958 23.9582C22.2495 25.6667 19.4996 25.6667 13.9999 25.6667Z" fill="#979797"/>
<path d="M14.0001 6.125C14.4833 6.125 14.8751 6.51675 14.8751 7V21C14.8751 21.4832 14.4833 21.875 14.0001 21.875C13.5168 21.875 13.1251 21.4832 13.1251 21V7C13.1251 6.51675 13.5168 6.125 14.0001 6.125Z" fill="#979797"/>
<path d="M8.16675 9.625C8.65 9.625 9.04175 10.0168 9.04175 10.5V21C9.04175 21.4832 8.65 21.875 8.16675 21.875C7.6835 21.875 7.29175 21.4832 7.29175 21V10.5C7.29175 10.0168 7.6835 9.625 8.16675 9.625Z" fill="#979797"/>
<path d="M19.8334 14.2917C20.3167 14.2917 20.7084 14.6834 20.7084 15.1667V21C20.7084 21.4832 20.3167 21.875 19.8334 21.875C19.3502 21.875 18.9584 21.4832 18.9584 21V15.1667C18.9584 14.6834 19.3502 14.2917 19.8334 14.2917Z" fill="#979797"/>
</svg>
