<svg width="15" height="16" viewBox="0 0 15 16" fill="none" xmlns="http://www.w3.org/2000/svg">
<path fill-rule="evenodd" clip-rule="evenodd" d="M4.25234 2.20234C4.33401 1.43062 4.98695 0.829346 5.78032 0.829346H9.19496C9.98833 0.829346 10.6413 1.43062 10.7229 2.20234C11.2441 2.21295 11.6947 2.23991 12.0794 2.31058C12.5971 2.40566 13.0376 2.5868 13.3961 2.94529C13.8071 3.35636 13.984 3.87393 14.0666 4.48864C14.1462 5.08071 14.1462 5.83352 14.1462 6.76748V10.94C14.1462 11.874 14.1462 12.6268 14.0666 13.2188C13.984 13.8335 13.8071 14.3511 13.3961 14.7622C12.985 15.1732 12.4674 15.3501 11.8527 15.4327C11.2607 15.5123 10.5079 15.5123 9.57389 15.5123H5.40139C4.46742 15.5123 3.71462 15.5123 3.12254 15.4327C2.50783 15.3501 1.99026 15.1732 1.57919 14.7622C1.16813 14.3511 0.991324 13.8335 0.908679 13.2188C0.829076 12.6268 0.829088 11.874 0.829102 10.94V6.76748C0.829088 5.83352 0.829076 5.08071 0.908679 4.48864C0.991324 3.87393 1.16813 3.35636 1.57919 2.94529C1.93768 2.5868 2.37822 2.40566 2.89588 2.31058C3.28062 2.23991 3.73121 2.21295 4.25234 2.20234ZM4.25395 3.22701C3.76349 3.23748 3.38554 3.26216 3.08095 3.31811C2.69386 3.38921 2.46981 3.50338 2.30355 3.66965C2.11454 3.85865 1.99131 4.12402 1.92393 4.62514C1.85458 5.14098 1.85349 5.82467 1.85349 6.80496V10.9025C1.85349 11.8828 1.85458 12.5665 1.92393 13.0823C1.99131 13.5835 2.11454 13.8488 2.30355 14.0378C2.49256 14.2268 2.75792 14.3501 3.25904 14.4174C3.77489 14.4868 4.45857 14.4879 5.43886 14.4879H9.53642C10.5167 14.4879 11.2004 14.4868 11.7162 14.4174C12.2174 14.3501 12.4827 14.2268 12.6717 14.0378C12.8607 13.8488 12.984 13.5835 13.0513 13.0823C13.1207 12.5665 13.1218 11.8828 13.1218 10.9025V6.80496C13.1218 5.82467 13.1207 5.14098 13.0513 4.62514C12.984 4.12402 12.8607 3.85865 12.6717 3.66964C12.5055 3.50338 12.2814 3.38921 11.8943 3.31811C11.5897 3.26216 11.2118 3.23748 10.7213 3.22701C10.633 3.99172 9.98333 4.58544 9.19496 4.58544H5.78032C4.99195 4.58544 4.34224 3.99172 4.25395 3.22701ZM5.78032 1.85374C5.49744 1.85374 5.26813 2.08305 5.26813 2.36593V3.04886C5.26813 3.33174 5.49744 3.56105 5.78032 3.56105H9.19496C9.47783 3.56105 9.70715 3.33174 9.70715 3.04886V2.36593C9.70715 2.08305 9.47783 1.85374 9.19496 1.85374H5.78032ZM3.56081 7.14642C3.56081 6.86354 3.79013 6.63422 4.073 6.63422H4.41447C4.69735 6.63422 4.92666 6.86354 4.92666 7.14642C4.92666 7.4293 4.69735 7.65861 4.41447 7.65861H4.073C3.79013 7.65861 3.56081 7.4293 3.56081 7.14642ZM5.95105 7.14642C5.95105 6.86354 6.18037 6.63422 6.46325 6.63422H10.9023C11.1852 6.63422 11.4145 6.86354 11.4145 7.14642C11.4145 7.4293 11.1852 7.65861 10.9023 7.65861H6.46325C6.18037 7.65861 5.95105 7.4293 5.95105 7.14642ZM3.56081 9.53666C3.56081 9.25379 3.79013 9.02447 4.073 9.02447H4.41447C4.69735 9.02447 4.92666 9.25379 4.92666 9.53666C4.92666 9.81954 4.69735 10.0489 4.41447 10.0489H4.073C3.79013 10.0489 3.56081 9.81954 3.56081 9.53666ZM5.95105 9.53666C5.95105 9.25379 6.18037 9.02447 6.46325 9.02447H10.9023C11.1852 9.02447 11.4145 9.25379 11.4145 9.53666C11.4145 9.81954 11.1852 10.0489 10.9023 10.0489H6.46325C6.18037 10.0489 5.95105 9.81954 5.95105 9.53666ZM3.56081 11.9269C3.56081 11.644 3.79013 11.4147 4.073 11.4147H4.41447C4.69735 11.4147 4.92666 11.644 4.92666 11.9269C4.92666 12.2098 4.69735 12.4391 4.41447 12.4391H4.073C3.79013 12.4391 3.56081 12.2098 3.56081 11.9269ZM5.95105 11.9269C5.95105 11.644 6.18037 11.4147 6.46325 11.4147H10.9023C11.1852 11.4147 11.4145 11.644 11.4145 11.9269C11.4145 12.2098 11.1852 12.4391 10.9023 12.4391H6.46325C6.18037 12.4391 5.95105 12.2098 5.95105 11.9269Z" fill="#555555"/>
</svg>
