<svg width="21" height="21" viewBox="0 0 21 21" fill="none" xmlns="http://www.w3.org/2000/svg">
<path d="M14.8482 3.85872L17.1417 6.15214M16.3227 1.83831L10.1184 8.04256C9.79784 8.36268 9.57921 8.77054 9.49008 9.21472L8.91699 12.0834L11.7857 11.5092C12.2298 11.4204 12.6372 11.2026 12.9578 10.882L19.1621 4.67772C19.3485 4.49128 19.4964 4.26995 19.5973 4.02636C19.6982 3.78276 19.7501 3.52168 19.7501 3.25801C19.7501 2.99435 19.6982 2.73327 19.5973 2.48967C19.4964 2.24608 19.3485 2.02475 19.1621 1.83831C18.9756 1.65187 18.7543 1.50398 18.5107 1.40308C18.2671 1.30218 18.006 1.25024 17.7424 1.25024C17.4787 1.25024 17.2176 1.30218 16.974 1.40308C16.7304 1.50398 16.5091 1.65187 16.3227 1.83831Z" stroke="#555555" stroke-width="2" stroke-linecap="round" stroke-linejoin="round"/>
<path d="M17.5835 14.2501V17.5001C17.5835 18.0747 17.3552 18.6258 16.9489 19.0321C16.5426 19.4385 15.9915 19.6667 15.4168 19.6667H3.50016C2.92553 19.6667 2.37443 19.4385 1.9681 19.0321C1.56177 18.6258 1.3335 18.0747 1.3335 17.5001V5.58341C1.3335 5.00878 1.56177 4.45768 1.9681 4.05135C2.37443 3.64502 2.92553 3.41675 3.50016 3.41675H6.75016" stroke="#555555" stroke-width="2" stroke-linecap="round" stroke-linejoin="round"/>
</svg>
