<svg width="26" height="26" viewBox="0 0 26 26" fill="none" xmlns="http://www.w3.org/2000/svg">
<path opacity="0.5" d="M3.75325 22.2468C5.33976 23.8333 7.8932 23.8333 13.0001 23.8333C18.107 23.8333 20.6604 23.8333 22.2469 22.2468C23.8334 20.6603 23.8334 18.1068 23.8334 13C23.8334 7.89308 23.8334 5.33964 22.2469 3.75313C20.6604 2.16663 18.107 2.16663 13.0001 2.16663C7.8932 2.16663 5.33976 2.16663 3.75325 3.75313C2.16675 5.33964 2.16675 7.89308 2.16675 13C2.16675 18.1068 2.16675 20.6603 3.75325 22.2468Z" fill="#3749A6"/>
<path d="M8.66659 14.0833C9.26489 14.0833 9.74992 13.5983 9.74992 13C9.74992 12.4017 9.26489 11.9166 8.66659 11.9166C8.06828 11.9166 7.58325 12.4017 7.58325 13C7.58325 13.5983 8.06828 14.0833 8.66659 14.0833Z" fill="#3749A6"/>
<path d="M12.9999 14.0833C13.5982 14.0833 14.0833 13.5983 14.0833 13C14.0833 12.4017 13.5982 11.9166 12.9999 11.9166C12.4016 11.9166 11.9166 12.4017 11.9166 13C11.9166 13.5983 12.4016 14.0833 12.9999 14.0833Z" fill="#3749A6"/>
<path d="M17.3333 14.0833C17.9316 14.0833 18.4166 13.5983 18.4166 13C18.4166 12.4017 17.9316 11.9166 17.3333 11.9166C16.7349 11.9166 16.2499 12.4017 16.2499 13C16.2499 13.5983 16.7349 14.0833 17.3333 14.0833Z" fill="#3749A6"/>
</svg>
