<svg width="16" height="15" viewBox="0 0 16 15" fill="none" xmlns="http://www.w3.org/2000/svg">
<path d="M10.6354 9.245L10.2516 9.62657C10.2516 9.62657 9.33946 10.5336 6.84959 8.05785C4.35972 5.58212 5.27191 4.67512 5.27191 4.67512L5.51357 4.43482C6.10891 3.84286 6.16503 2.89248 5.64563 2.19866L4.58313 0.779397C3.94026 -0.0793433 2.698 -0.192783 1.96115 0.539888L0.638611 1.85491C0.273246 2.2182 0.0284077 2.68914 0.0580971 3.21156C0.134055 4.54809 0.738766 7.42373 4.11305 10.7788C7.69136 14.3368 11.0488 14.4782 12.4218 14.3502C12.8561 14.3098 13.2337 14.0886 13.5381 13.786L14.735 12.5958C15.543 11.7925 15.3152 10.4152 14.2814 9.8532L12.6717 8.9781C11.9929 8.60911 11.1659 8.7175 10.6354 9.245Z" fill="white"/>
</svg>
