<svg width="16" height="15" viewBox="0 0 16 15" fill="none" xmlns="http://www.w3.org/2000/svg">
<g clip-path="url(#clip0_819_473)">
<path d="M6.82365 6.75725L2.58416 10.9967C2.47265 11.1081 2.38419 11.2404 2.32384 11.386C2.26349 11.5316 2.23242 11.6876 2.23242 11.8452C2.23242 12.0028 2.26349 12.1589 2.32384 12.3045C2.38419 12.4501 2.47265 12.5824 2.58416 12.6937C2.80906 12.9186 3.11405 13.0449 3.43206 13.0449C3.75006 13.0449 4.05505 12.9186 4.27995 12.6937L8.51945 8.45304M11.1069 8.67191L13.4323 10.9973C13.6572 11.2222 13.7835 11.5272 13.7835 11.8452C13.7835 12.1632 13.6572 12.4682 13.4323 12.6931C13.2074 12.918 12.9024 13.0443 12.5844 13.0443C12.2664 13.0443 11.9614 12.918 11.7365 12.6931L8.01334 8.97054M4.83463 3.93712L3.56158 4.36047L2.29033 2.24072L3.13823 1.39282L5.25858 2.66467L4.83463 3.93712ZM4.83463 3.93712L6.53162 5.63411" stroke="#555555" stroke-width="1.2" stroke-linecap="round" stroke-linejoin="round"/>
<path d="M6.82358 6.75715C6.31748 5.46612 6.41642 3.77212 7.4598 2.72874C8.50318 1.68535 10.428 1.45689 11.4876 2.09311L9.6647 3.91603L9.495 5.78153L11.3605 5.61243L13.1834 3.78891C13.8202 4.84908 13.5912 6.77394 12.5478 7.81672C11.5044 8.86011 9.81101 8.95905 8.51997 8.45295" stroke="#555555" stroke-width="1.2" stroke-linecap="round" stroke-linejoin="round"/>
</g>
<defs>
<clipPath id="clip0_819_473">
<rect width="14.3915" height="14.3915" fill="white" transform="translate(0.796875 0.396729)"/>
</clipPath>
</defs>
</svg>
